<svg xmlns="http://www.w3.org/2000/svg" xmlns:xlink="http://www.w3.org/1999/xlink"  width="337pt" height="242pt" viewBox="0.00 0.00 336.81 241.60">

    <g class="row"><rect class="square" x="1" y="1" width="50" height="50" style="fill: var(--back-color); stroke: var(--font-color);"></rect><rect class="square" x="51" y="1" width="50" height="50" style="fill: var(--back-color); stroke: var(--font-color);"></rect><rect class="square" x="101" y="1" width="50" height="50" style="fill: var(--back-color); stroke: var(--font-color);"></rect><rect class="square" x="151" y="1" width="50" height="50" style="fill: var(--back-color); stroke: var(--font-color);"></rect><rect class="square" x="201" y="1" width="50" height="50" style="fill: var(--back-color); stroke: var(--font-color);"></rect><rect class="square" x="251" y="1" width="50" height="50" style="fill: var(--back-color); stroke: var(--font-color);"></rect><rect class="square" x="301" y="1" width="50" height="50" style="fill: var(--back-color); stroke: var(--font-color);"></rect><rect class="square" x="351" y="1" width="50" height="50" style="fill: var(--back-color); stroke: var(--font-color);"></rect><rect class="square" x="401" y="1" width="50" height="50" style="fill: var(--back-color); stroke: var(--font-color);"></rect><rect class="square" x="451" y="1" width="50" height="50" style="fill: var(--back-color); stroke: var(--font-color);"></rect></g><g class="row"><rect class="square" x="1" y="51" width="50" height="50" style="fill: var(--back-color); stroke: var(--font-color);"></rect><rect class="square" x="51" y="51" width="50" height="50" style="fill: var(--back-color); stroke: var(--font-color);"></rect><rect class="square" x="101" y="51" width="50" height="50" style="fill: var(--back-color); stroke: var(--font-color);"></rect><rect class="square" x="151" y="51" width="50" height="50" style="fill: var(--back-color); stroke: var(--font-color);"></rect><rect class="square" x="201" y="51" width="50" height="50" style="fill: var(--back-color); stroke: var(--font-color);"></rect><rect class="square" x="251" y="51" width="50" height="50" style="fill: var(--back-color); stroke: var(--font-color);"></rect><rect class="square" x="301" y="51" width="50" height="50" style="fill: var(--back-color); stroke: var(--font-color);"></rect><rect class="square" x="351" y="51" width="50" height="50" style="fill: var(--back-color); stroke: var(--font-color);"></rect><rect class="square" x="401" y="51" width="50" height="50" style="fill: var(--back-color); stroke: var(--font-color);"></rect><rect class="square" x="451" y="51" width="50" height="50" style="fill: var(--back-color); stroke: var(--font-color);"></rect></g><g class="row"><rect class="square" x="1" y="101" width="50" height="50" style="fill: var(--back-color); stroke: var(--font-color);"></rect><rect class="square" x="51" y="101" width="50" height="50" style="fill: var(--back-color); stroke: var(--font-color);"></rect><rect class="square" x="101" y="101" width="50" height="50" style="fill: var(--back-color); stroke: var(--font-color);"></rect><rect class="square" x="151" y="101" width="50" height="50" style="fill: var(--back-color); stroke: var(--font-color);"></rect><rect class="square" x="201" y="101" width="50" height="50" style="fill: var(--back-color); stroke: var(--font-color);"></rect><rect class="square" x="251" y="101" width="50" height="50" style="fill: var(--back-color); stroke: var(--font-color);"></rect><rect class="square" x="301" y="101" width="50" height="50" style="fill: var(--back-color); stroke: var(--font-color);"></rect><rect class="square" x="351" y="101" width="50" height="50" style="fill: var(--back-color); stroke: var(--font-color);"></rect><rect class="square" x="401" y="101" width="50" height="50" style="fill: var(--back-color); stroke: var(--font-color);"></rect><rect class="square" x="451" y="101" width="50" height="50" style="fill: var(--back-color); stroke: var(--font-color);"></rect></g><g class="row"><rect class="square" x="1" y="151" width="50" height="50" style="fill: var(--back-color); stroke: var(--font-color);"></rect><rect class="square" x="51" y="151" width="50" height="50" style="fill: var(--back-color); stroke: var(--font-color);"></rect><rect class="square" x="101" y="151" width="50" height="50" style="fill: var(--back-color); stroke: var(--font-color);"></rect><rect class="square" x="151" y="151" width="50" height="50" style="fill: var(--back-color); stroke: var(--font-color);"></rect><rect class="square" x="201" y="151" width="50" height="50" style="fill: var(--back-color); stroke: var(--font-color);"></rect><rect class="square" x="251" y="151" width="50" height="50" style="fill: var(--back-color); stroke: var(--font-color);"></rect><rect class="square" x="301" y="151" width="50" height="50" style="fill: var(--back-color); stroke: var(--font-color);"></rect><rect class="square" x="351" y="151" width="50" height="50" style="fill: var(--back-color); stroke: var(--font-color);"></rect><rect class="square" x="401" y="151" width="50" height="50" style="fill: var(--back-color); stroke: var(--font-color);"></rect><rect class="square" x="451" y="151" width="50" height="50" style="fill: var(--back-color); stroke: var(--font-color);"></rect></g><g class="row"><rect class="square" x="1" y="201" width="50" height="50" style="fill: var(--back-color); stroke: var(--font-color);"></rect><rect class="square" x="51" y="201" width="50" height="50" style="fill: var(--back-color); stroke: var(--font-color);"></rect><rect class="square" x="101" y="201" width="50" height="50" style="fill: var(--back-color); stroke: var(--font-color);"></rect><rect class="square" x="151" y="201" width="50" height="50" style="fill: var(--back-color); stroke: var(--font-color);"></rect><rect class="square" x="201" y="201" width="50" height="50" style="fill: var(--back-color); stroke: var(--font-color);"></rect><rect class="square" x="251" y="201" width="50" height="50" style="fill: var(--back-color); stroke: var(--font-color);"></rect><rect class="square" x="301" y="201" width="50" height="50" style="fill: var(--back-color); stroke: var(--font-color);"></rect><rect class="square" x="351" y="201" width="50" height="50" style="fill: var(--back-color); stroke: var(--font-color);"></rect><rect class="square" x="401" y="201" width="50" height="50" style="fill: var(--back-color); stroke: var(--font-color);"></rect><rect class="square" x="451" y="201" width="50" height="50" style="fill: var(--back-color); stroke: var(--font-color);"></rect></g><g class="row"><rect class="square" x="1" y="251" width="50" height="50" style="fill: var(--back-color); stroke: var(--font-color);"></rect><rect class="square" x="51" y="251" width="50" height="50" style="fill: var(--back-color); stroke: var(--font-color);"></rect><rect class="square" x="101" y="251" width="50" height="50" style="fill: var(--back-color); stroke: var(--font-color);"></rect><rect class="square" x="151" y="251" width="50" height="50" style="fill: var(--back-color); stroke: var(--font-color);"></rect><rect class="square" x="201" y="251" width="50" height="50" style="fill: var(--back-color); stroke: var(--font-color);"></rect><rect class="square" x="251" y="251" width="50" height="50" style="fill: var(--back-color); stroke: var(--font-color);"></rect><rect class="square" x="301" y="251" width="50" height="50" style="fill: var(--back-color); stroke: var(--font-color);"></rect><rect class="square" x="351" y="251" width="50" height="50" style="fill: var(--back-color); stroke: var(--font-color);"></rect><rect class="square" x="401" y="251" width="50" height="50" style="fill: var(--back-color); stroke: var(--font-color);"></rect><rect class="square" x="451" y="251" width="50" height="50" style="fill: var(--back-color); stroke: var(--font-color);"></rect></g><g class="row"><rect class="square" x="1" y="301" width="50" height="50" style="fill: var(--back-color); stroke: var(--font-color);"></rect><rect class="square" x="51" y="301" width="50" height="50" style="fill: var(--back-color); stroke: var(--font-color);"></rect><rect class="square" x="101" y="301" width="50" height="50" style="fill: var(--back-color); stroke: var(--font-color);"></rect><rect class="square" x="151" y="301" width="50" height="50" style="fill: var(--back-color); stroke: var(--font-color);"></rect><rect class="square" x="201" y="301" width="50" height="50" style="fill: var(--back-color); stroke: var(--font-color);"></rect><rect class="square" x="251" y="301" width="50" height="50" style="fill: var(--back-color); stroke: var(--font-color);"></rect><rect class="square" x="301" y="301" width="50" height="50" style="fill: var(--back-color); stroke: var(--font-color);"></rect><rect class="square" x="351" y="301" width="50" height="50" style="fill: var(--back-color); stroke: var(--font-color);"></rect><rect class="square" x="401" y="301" width="50" height="50" style="fill: var(--back-color); stroke: var(--font-color);"></rect><rect class="square" x="451" y="301" width="50" height="50" style="fill: var(--back-color); stroke: var(--font-color);"></rect></g><g class="row"><rect class="square" x="1" y="351" width="50" height="50" style="fill: var(--back-color); stroke: var(--font-color);"></rect><rect class="square" x="51" y="351" width="50" height="50" style="fill: var(--back-color); stroke: var(--font-color);"></rect><rect class="square" x="101" y="351" width="50" height="50" style="fill: var(--back-color); stroke: var(--font-color);"></rect><rect class="square" x="151" y="351" width="50" height="50" style="fill: var(--back-color); stroke: var(--font-color);"></rect><rect class="square" x="201" y="351" width="50" height="50" style="fill: var(--back-color); stroke: var(--font-color);"></rect><rect class="square" x="251" y="351" width="50" height="50" style="fill: var(--back-color); stroke: var(--font-color);"></rect><rect class="square" x="301" y="351" width="50" height="50" style="fill: var(--back-color); stroke: var(--font-color);"></rect><rect class="square" x="351" y="351" width="50" height="50" style="fill: var(--back-color); stroke: var(--font-color);"></rect><rect class="square" x="401" y="351" width="50" height="50" style="fill: var(--back-color); stroke: var(--font-color);"></rect><rect class="square" x="451" y="351" width="50" height="50" style="fill: var(--back-color); stroke: var(--font-color);"></rect></g><g class="row"><rect class="square" x="1" y="401" width="50" height="50" style="fill: var(--back-color); stroke: var(--font-color);"></rect><rect class="square" x="51" y="401" width="50" height="50" style="fill: var(--back-color); stroke: var(--font-color);"></rect><rect class="square" x="101" y="401" width="50" height="50" style="fill: var(--back-color); stroke: var(--font-color);"></rect><rect class="square" x="151" y="401" width="50" height="50" style="fill: var(--back-color); stroke: var(--font-color);"></rect><rect class="square" x="201" y="401" width="50" height="50" style="fill: var(--back-color); stroke: var(--font-color);"></rect><rect class="square" x="251" y="401" width="50" height="50" style="fill: var(--back-color); stroke: var(--font-color);"></rect><rect class="square" x="301" y="401" width="50" height="50" style="fill: var(--back-color); stroke: var(--font-color);"></rect><rect class="square" x="351" y="401" width="50" height="50" style="fill: var(--back-color); stroke: var(--font-color);"></rect><rect class="square" x="401" y="401" width="50" height="50" style="fill: var(--back-color); stroke: var(--font-color);"></rect><rect class="square" x="451" y="401" width="50" height="50" style="fill: var(--back-color); stroke: var(--font-color);"></rect></g><g class="row"><rect class="square" x="1" y="451" width="50" height="50" style="fill: var(--back-color); stroke: var(--font-color);"></rect><rect class="square" x="51" y="451" width="50" height="50" style="fill: var(--back-color); stroke: var(--font-color);"></rect><rect class="square" x="101" y="451" width="50" height="50" style="fill: var(--back-color); stroke: var(--font-color);"></rect><rect class="square" x="151" y="451" width="50" height="50" style="fill: var(--back-color); stroke: var(--font-color);"></rect><rect class="square" x="201" y="451" width="50" height="50" style="fill: var(--back-color); stroke: var(--font-color);"></rect><rect class="square" x="251" y="451" width="50" height="50" style="fill: var(--back-color); stroke: var(--font-color);"></rect><rect class="square" x="301" y="451" width="50" height="50" style="fill: var(--back-color); stroke: var(--font-color);"></rect><rect class="square" x="351" y="451" width="50" height="50" style="fill: var(--back-color); stroke: var(--font-color);"></rect><rect class="square" x="401" y="451" width="50" height="50" style="fill: var(--back-color); stroke: var(--font-color);"></rect><rect class="square" x="451" y="451" width="50" height="50" style="fill: var(--back-color); stroke: var(--font-color);"></rect></g>
</svg>