<svg xmlns="http://www.w3.org/2000/svg" xmlns:xlink="http://www.w3.org/1999/xlink" width="373pt" height="44pt" viewBox="0.00 0.00 372.79 44.00">
    <g id="graph0" class="graph" transform="translate(73.7150845023284,19.876173937995198) scale(0.6597539553864471)">
        <title>tt</title>
        <polygon fill="white" stroke="none" points="-4,4 -4,-40 368.79,-40 368.79,4 -4,4"></polygon>
        <!-- ACCOUNTS.User -->
        <g id="node1" class="node graph_node_table">
            <title>ACCOUNTS.User</title>
            <polygon fill="none" stroke="black" points="0,-4.6 0,-31.4 38.79,-31.4 38.79,-4.6 0,-4.6"></polygon>
            <text text-anchor="start" x="5" y="-13.8" font-family="Times,serif" font-size="14.00">ACC</text>
            <polygon fill="none" stroke="black" points="38.79,-4.6 38.79,-31.4 55.79,-31.4 55.79,-4.6 38.79,-4.6"></polygon>
            <text text-anchor="start" x="43.79" y="-13.8" font-family="Times,serif" font-size="14.00">1</text>
        </g>
        <!-- REVIEWS.Review -->
        <g id="node3" class="node graph_node_table">
            <title>REVIEWS.Review</title>
            <polygon fill="none" stroke="black" points="103.79,-4.6 103.79,-31.4 141.79,-31.4 141.79,-4.6 103.79,-4.6"></polygon>
            <text text-anchor="start" x="108.79" y="-13.8" font-family="Times,serif" font-size="14.00">REV</text>
            <polygon fill="none" stroke="black" points="141.79,-4.6 141.79,-31.4 158.79,-31.4 158.79,-4.6 141.79,-4.6"></polygon>
            <text text-anchor="start" x="146.79" y="-13.8" font-family="Times,serif" font-size="14.00">3</text>
        </g>
        <!-- ACCOUNTS.User&#45;&gt;REVIEWS.Review -->
        <g id="edge1" class="edge graph_label">
            <title>ACCOUNTS.User-&gt;REVIEWS.Review</title>
            <path fill="none" stroke="black" d="M58.73,-18C71.9,-18 87.36,-18 100.53,-18"></path>
            <polygon fill="black" stroke="black" points="59.05,-17.3 57.05,-18 59.05,-18.7 59.05,-17.3"></polygon>
            <polygon fill="black" stroke="black" points="100.31,-18.7 102.31,-18 100.31,-17.3 100.31,-18.7"></polygon>
            <text text-anchor="middle" x="79.79" y="-21.6" font-family="Times,serif" font-size="12.00">10</text>
        </g>
        <!-- QUERY.Query -->
        <g id="node2" class="node graph_node_table">
            <title>QUERY.Query</title>
            <polygon fill="none" stroke="black" points="309.02,-4.6 309.02,-31.4 347.79,-31.4 347.79,-4.6 309.02,-4.6"></polygon>
            <text text-anchor="start" x="314.02" y="-13.8" font-family="Times,serif" font-size="14.00">QUE</text>
            <polygon fill="none" stroke="black" points="347.79,-4.6 347.79,-31.4 364.79,-31.4 364.79,-4.6 347.79,-4.6"></polygon>
            <text text-anchor="start" x="352.79" y="-13.8" font-family="Times,serif" font-size="14.00">2</text>
        </g>
        <!-- QUERY.Query&#45;&gt;ACCOUNTS.User -->
        <g id="node4" class="node graph_node_table">
            <title>PRODUCTS.Product</title>
            <polygon fill="none" stroke="black" points="206.79,-4.6 206.79,-31.4 244.02,-31.4 244.02,-4.6 206.79,-4.6"></polygon>
            <text text-anchor="start" x="211.79" y="-13.8" font-family="Times,serif" font-size="14.00">PRO</text>
            <polygon fill="none" stroke="black" points="244.02,-4.6 244.02,-31.4 261.02,-31.4 261.02,-4.6 244.02,-4.6"></polygon>
            <text text-anchor="start" x="249.02" y="-13.8" font-family="Times,serif" font-size="14.00">4</text>
        </g>
        <!-- PRODUCTS.Product -->
        <g id="edge2" class="edge graph_label">
            <title style="">REVIEWS.Review-&gt;PRODUCTS.Product</title>
            <path fill="none" stroke="black" d="M161.92,-18C175.1,-18 190.58,-18 203.71,-18" style=""></path>
            <polygon fill="black" stroke="black" points="162.24,-17.3 160.24,-18 162.24,-18.7 162.24,-17.3" style=""></polygon>
            <polygon fill="black" stroke="black" points="203.48,-18.7 205.48,-18 203.48,-17.3 203.48,-18.7" style=""></polygon>
            <text text-anchor="middle" x="182.79" y="-21.6" font-family="Times,serif" font-size="12.00" style="">30</text>
        </g>
        <!-- REVIEWS.Review&#45;&gt;PRODUCTS.Product -->
        <g id="edge3" class="edge graph_label">
            <title style="">PRODUCTS.Product-&gt;QUERY.Query</title>
            <path fill="none" stroke="black" d="M264.1,-18C277.24,-18 292.74,-18 305.97,-18" style=""></path>
            <polygon fill="black" stroke="black" points="264.43,-17.3 262.43,-18 264.43,-18.7 264.43,-17.3" style=""></polygon>
            <polygon fill="black" stroke="black" points="305.77,-18.7 307.77,-18 305.77,-17.3 305.77,-18.7" style=""></polygon>
            <text text-anchor="middle" x="285.02" y="-21.6" font-family="Times,serif" font-size="12.00" style="">50</text>
        </g>
    </g>
</svg>