<svg xmlns="http://www.w3.org/2000/svg" xmlns:xlink="http://www.w3.org/1999/xlink" width="337pt" height="242pt" viewBox="0.00 0.00 336.81 241.60">
    <g id="graph0" class="graph" transform="translate(4,237.60000610351562) scale(1)">
        <title style="">G</title>
        <polygon fill="white" stroke="none" points="-4,4 -4,-237.6 332.81,-237.6 332.81,4 -4,4" style=""></polygon>
        <!-- node0 -->
        <g id="node0" class="node graph_node">
            <title style="">node0</title>
            <ellipse fill="none" stroke="black" cx="24.01" cy="-62" rx="3.6" ry="3.6" style=""></ellipse>
            <text text-anchor="middle" x="10.21" y="-52.1" font-family="Times,serif" font-size="7.00" style="">Node 0</text>
        </g>
        <!-- node1 -->
        <g id="node1" class="node graph_node">
            <title style="">node1</title>
            <ellipse fill="none" stroke="black" cx="74.21" cy="-93" rx="3.6" ry="3.6" style=""></ellipse>
            <text text-anchor="middle" x="67.61" y="-83.1" font-family="Times,serif" font-size="7.00" style="">Node 1</text>
        </g>
        <!-- node0&#45;&gt;node1 -->
        <g id="edge1" class="edge">
            <title style="">node0-&gt;node1</title>
            <path fill="none" stroke="black" d="M27.6,-63.67C35.26,-68.59 57.87,-83.14 68.09,-89.71" style=""></path>
            <polygon fill="black" stroke="black" points="67.5,-90.16 69.57,-90.65 68.26,-88.98 67.5,-90.16" style=""></polygon>
            <text text-anchor="middle" x="49.11" y="-81.46" font-family="Times,serif" font-size="7.00" style="">92</text>
        </g>
        <!-- node18 -->
        <g id="node18" class="node graph_node">
            <title style="">node18</title>
            <ellipse fill="none" stroke="black" cx="74.21" cy="-62" rx="3.6" ry="3.6" style=""></ellipse>
            <text text-anchor="middle" x="65.86" y="-52.1" font-family="Times,serif" font-size="7.00" style="">Node 18</text>
        </g>
        <!-- node0&#45;&gt;node18 -->
        <g id="edge2" class="edge">
            <title style="">node0-&gt;node18</title>
            <path fill="none" stroke="black" d="M27.88,-62C35.54,-62 56.56,-62 67.07,-62" style=""></path>
            <polygon fill="black" stroke="black" points="66.9,-62.7 68.9,-62 66.9,-61.3 66.9,-62.7" style=""></polygon>
            <text text-anchor="middle" x="49.11" y="-64.1" font-family="Times,serif" font-size="7.00" style="">67</text>
        </g>
        <!-- node19 -->
        <g id="node19" class="node graph_node">
            <title style="">node19</title>
            <ellipse fill="none" stroke="black" cx="74.21" cy="-31" rx="3.6" ry="3.6" style=""></ellipse>
            <text text-anchor="middle" x="58.66" y="-21.1" font-family="Times,serif" font-size="7.00" style="">Node 19</text>
        </g>
        <!-- node0&#45;&gt;node19 -->
        <g id="edge3" class="edge">
            <title style="">node0-&gt;node19</title>
            <path fill="none" stroke="black" d="M27.6,-60.33C35.26,-55.41 57.87,-40.86 68.09,-34.29" style=""></path>
            <polygon fill="black" stroke="black" points="68.26,-35.02 69.57,-33.35 67.5,-33.84 68.26,-35.02" style=""></polygon>
            <text text-anchor="middle" x="49.11" y="-50.46" font-family="Times,serif" font-size="7.00" style="">76</text>
        </g>
        <!-- node2 -->
        <g id="node2" class="node graph_node">
            <title style="">node2</title>
            <ellipse fill="none" stroke="black" cx="124.41" cy="-144" rx="3.6" ry="3.6" style=""></ellipse>
            <text text-anchor="middle" x="110.61" y="-134.1" font-family="Times,serif" font-size="7.00" style="">Node 2</text>
        </g>
        <!-- node1&#45;&gt;node2 -->
        <g id="edge4" class="edge">
            <title style="">node1-&gt;node2</title>
            <path fill="none" stroke="black" d="M77.28,-95.19C84.59,-102.92 109.27,-129.04 119.21,-139.56" style=""></path>
            <polygon fill="black" stroke="black" points="118.48,-139.8 120.36,-140.77 119.5,-138.84 118.48,-139.8" style=""></polygon>
            <text text-anchor="middle" x="99.31" y="-123.65" font-family="Times,serif" font-size="7.00" style="">71</text>
        </g>
        <!-- node4 -->
        <g id="node4" class="node graph_node">
            <title style="">node4</title>
            <ellipse fill="none" stroke="black" cx="124.41" cy="-204" rx="3.6" ry="3.6" style=""></ellipse>
            <text text-anchor="middle" x="110.61" y="-194.1" font-family="Times,serif" font-size="7.00" style="">Node 4</text>
        </g>
        <!-- node1&#45;&gt;node4 -->
        <g id="edge5" class="edge">
            <title style="">node1-&gt;node4</title>
            <path fill="none" stroke="black" d="M76.6,-96.2C83.26,-111.52 111.89,-177.46 120.77,-197.92" style=""></path>
            <polygon fill="black" stroke="black" points="120.07,-198.05 121.5,-199.61 121.35,-197.49 120.07,-198.05" style=""></polygon>
            <text text-anchor="middle" x="99.31" y="-157.25" font-family="Times,serif" font-size="7.00" style="">63</text>
        </g>
        <!-- node8 -->
        <g id="node8" class="node graph_node">
            <title style="">node8</title>
            <ellipse fill="none" stroke="black" cx="124.41" cy="-93" rx="3.6" ry="3.6" style=""></ellipse>
            <text text-anchor="middle" x="110.61" y="-83.1" font-family="Times,serif" font-size="7.00" style="">Node 8</text>
        </g>
        <!-- node1&#45;&gt;node8 -->
        <g id="edge6" class="edge">
            <title style="">node1-&gt;node8</title>
            <path fill="none" stroke="black" d="M78.08,-93C85.74,-93 106.76,-93 117.27,-93" style=""></path>
            <polygon fill="black" stroke="black" points="117.1,-93.7 119.1,-93 117.1,-92.3 117.1,-93.7" style=""></polygon>
            <text text-anchor="middle" x="99.31" y="-95.1" font-family="Times,serif" font-size="7.00" style="">92</text>
        </g>
        <!-- node9 -->
        <g id="node9" class="node graph_node">
            <title style="">node9</title>
            <ellipse fill="none" stroke="black" cx="325.21" cy="-77" rx="3.6" ry="3.6" style=""></ellipse>
            <text text-anchor="middle" x="311.41" y="-67.1" font-family="Times,serif" font-size="7.00" style="">Node 9</text>
        </g>
        <!-- node1&#45;&gt;node9 -->
        <g id="edge7" class="edge">
            <title style="">node1-&gt;node9</title>
            <path fill="none" stroke="black" d="M76.49,-89.78C81.04,-78.88 97.64,-44 123.41,-44 123.41,-44 123.41,-44 276.01,-44 295.5,-44 312.88,-62.59 320.35,-71.86" style=""></path>
            <polygon fill="black" stroke="black" points="319.62,-72.07 321.4,-73.22 320.73,-71.21 319.62,-72.07" style=""></polygon>
            <text text-anchor="middle" x="199.71" y="-46.1" font-family="Times,serif" font-size="7.00" style="">4</text>
        </g>
        <!-- node15 -->
        <g id="node15" class="node graph_node">
            <title style="">node15</title>
            <ellipse fill="none" stroke="black" cx="124.41" cy="-12" rx="3.6" ry="3.6" style=""></ellipse>
            <text text-anchor="middle" x="108.86" y="-2.1" font-family="Times,serif" font-size="7.00" style="">Node 15</text>
        </g>
        <!-- node1&#45;&gt;node15 -->
        <g id="edge8" class="edge">
            <title style="">node1-&gt;node15</title>
            <path fill="none" stroke="black" d="M75.8,-89.42C78,-76.41 86.14,-31.81 95.81,-21.6 101.36,-15.74 110.66,-13.46 116.92,-12.57" style=""></path>
            <polygon fill="black" stroke="black" points="116.94,-13.27 118.85,-12.35 116.79,-11.88 116.94,-13.27" style=""></polygon>
            <text text-anchor="middle" x="99.31" y="-23.7" font-family="Times,serif" font-size="7.00" style="">1</text>
        </g>
        <!-- node3 -->
        <g id="node3" class="node graph_node">
            <title style="">node3</title>
            <ellipse fill="none" stroke="black" cx="174.61" cy="-147" rx="3.6" ry="3.6" style=""></ellipse>
            <text text-anchor="middle" x="160.81" y="-137.1" font-family="Times,serif" font-size="7.00" style="">Node 3</text>
        </g>
        <!-- node2&#45;&gt;node3 -->
        <g id="edge9" class="edge">
            <title style="">node2-&gt;node3</title>
            <path fill="none" stroke="black" d="M128.31,-144.16C133.34,-144.44 144.01,-145.03 153.01,-145.6 157.93,-145.91 163.51,-146.29 167.62,-146.58" style=""></path>
            <polygon fill="black" stroke="black" points="167.13,-147.24 169.17,-146.69 167.22,-145.85 167.13,-147.24" style=""></polygon>
            <text text-anchor="middle" x="149.51" y="-147.7" font-family="Times,serif" font-size="7.00" style="">36</text>
        </g>
        <!-- node5 -->
        <g id="node5" class="node graph_node">
            <title style="">node5</title>
            <ellipse fill="none" stroke="black" cx="174.61" cy="-175" rx="3.6" ry="3.6" style=""></ellipse>
            <text text-anchor="middle" x="168.01" y="-165.1" font-family="Times,serif" font-size="7.00" style="">Node 5</text>
        </g>
        <!-- node2&#45;&gt;node5 -->
        <g id="edge10" class="edge">
            <title style="">node2-&gt;node5</title>
            <path fill="none" stroke="black" d="M128,-145.67C135.66,-150.59 158.27,-165.14 168.49,-171.71" style=""></path>
            <polygon fill="black" stroke="black" points="167.9,-172.16 169.97,-172.65 168.66,-170.98 167.9,-172.16" style=""></polygon>
            <text text-anchor="middle" x="149.51" y="-163.46" font-family="Times,serif" font-size="7.00" style="">81</text>
        </g>
        <!-- node7 -->
        <g id="node7" class="node graph_node">
            <title style="">node7</title>
            <ellipse fill="none" stroke="black" cx="224.81" cy="-111" rx="3.6" ry="3.6" style=""></ellipse>
            <text text-anchor="middle" x="211.01" y="-101.1" font-family="Times,serif" font-size="7.00" style="">Node 7</text>
        </g>
        <!-- node3&#45;&gt;node7 -->
        <g id="edge11" class="edge">
            <title style="">node3-&gt;node7</title>
            <path fill="none" stroke="black" d="M177.92,-144.72C181.61,-141.1 189.18,-133.93 196.21,-128.6 203.55,-123.04 212.65,-117.47 218.35,-114.13" style=""></path>
            <polygon fill="black" stroke="black" points="218.44,-114.88 219.82,-113.27 217.74,-113.67 218.44,-114.88" style=""></polygon>
            <text text-anchor="middle" x="199.71" y="-130.7" font-family="Times,serif" font-size="7.00" style="">31</text>
        </g>
        <!-- node10 -->
        <g id="node10" class="node graph_node">
            <title style="">node10</title>
            <ellipse fill="none" stroke="black" cx="224.81" cy="-209" rx="3.6" ry="3.6" style=""></ellipse>
            <text text-anchor="middle" x="216.46" y="-199.1" font-family="Times,serif" font-size="7.00" style="">Node 10</text>
        </g>
        <!-- node3&#45;&gt;node10 -->
        <g id="edge13" class="edge">
            <title style="">node3-&gt;node10</title>
            <path fill="none" stroke="black" d="M176.72,-150.17C179.31,-157.3 186.31,-174.92 196.21,-187 202.64,-194.84 212.28,-201.73 218.3,-205.63" style=""></path>
            <polygon fill="black" stroke="black" points="217.88,-206.19 219.95,-206.67 218.63,-205.01 217.88,-206.19" style=""></polygon>
            <text text-anchor="middle" x="199.71" y="-196.05" font-family="Times,serif" font-size="7.00" style="">91</text>
        </g>
        <!-- node16 -->
        <g id="node16" class="node graph_node">
            <title style="">node16</title>
            <ellipse fill="none" stroke="black" cx="224.81" cy="-136" rx="3.6" ry="3.6" style=""></ellipse>
            <text text-anchor="middle" x="216.46" y="-126.1" font-family="Times,serif" font-size="7.00" style="">Node 16</text>
        </g>
        <!-- node3&#45;&gt;node16 -->
        <g id="edge12" class="edge">
            <title style="">node3-&gt;node16</title>
            <path fill="none" stroke="black" d="M178.48,-146.34C186.14,-144.6 207.16,-139.8 217.67,-137.4" style=""></path>
            <polygon fill="black" stroke="black" points="217.75,-138.1 219.54,-136.97 217.44,-136.74 217.75,-138.1" style=""></polygon>
            <text text-anchor="middle" x="199.71" y="-144.26" font-family="Times,serif" font-size="7.00" style="">20</text>
        </g>
        <!-- node6 -->
        <g id="node6" class="node graph_node">
            <title style="">node6</title>
            <ellipse fill="none" stroke="black" cx="174.61" cy="-230" rx="3.6" ry="3.6" style=""></ellipse>
            <text text-anchor="middle" x="168.01" y="-220.1" font-family="Times,serif" font-size="7.00" style="">Node 6</text>
        </g>
        <!-- node4&#45;&gt;node6 -->
        <g id="edge14" class="edge">
            <title style="">node4-&gt;node6</title>
            <path fill="none" stroke="black" d="M128,-205.4C135.59,-209.49 157.88,-221.52 168.23,-227.1" style=""></path>
            <polygon fill="black" stroke="black" points="167.81,-227.67 169.91,-228 168.48,-226.44 167.81,-227.67" style=""></polygon>
            <text text-anchor="middle" x="149.51" y="-220.66" font-family="Times,serif" font-size="7.00" style="">34</text>
        </g>
        <!-- node6&#45;&gt;node10 -->
        <g id="edge15" class="edge">
            <title style="">node6-&gt;node10</title>
            <path fill="none" stroke="black" d="M178.51,-228.74C183.54,-226.56 194.21,-221.92 203.21,-218 208.24,-215.81 213.96,-213.31 218.1,-211.5" style=""></path>
            <polygon fill="black" stroke="black" points="218.21,-212.22 219.76,-210.77 217.65,-210.93 218.21,-212.22" style=""></polygon>
            <text text-anchor="middle" x="199.71" y="-223.07" font-family="Times,serif" font-size="7.00" style="">62</text>
        </g>
        <!-- node17 -->
        <g id="node17" class="node graph_node">
            <title style="">node17</title>
            <ellipse fill="none" stroke="black" cx="275.01" cy="-76" rx="3.6" ry="3.6" style=""></ellipse>
            <text text-anchor="middle" x="259.46" y="-66.1" font-family="Times,serif" font-size="7.00" style="">Node 17</text>
        </g>
        <!-- node7&#45;&gt;node17 -->
        <g id="edge16" class="edge">
            <title style="">node7-&gt;node17</title>
            <path fill="none" stroke="black" d="M228.14,-108.86C231.87,-105.46 239.47,-98.71 246.41,-93.6 253.83,-88.14 262.91,-82.54 268.58,-79.17" style=""></path>
            <polygon fill="black" stroke="black" points="268.68,-79.92 270.04,-78.31 267.97,-78.72 268.68,-79.92" style=""></polygon>
            <text text-anchor="middle" x="249.91" y="-95.7" font-family="Times,serif" font-size="7.00" style="">83</text>
        </g>
        <!-- node12 -->
        <g id="node12" class="node graph_node">
            <title style="">node12</title>
            <ellipse fill="none" stroke="black" cx="174.61" cy="-105" rx="3.6" ry="3.6" style=""></ellipse>
            <text text-anchor="middle" x="166.26" y="-95.1" font-family="Times,serif" font-size="7.00" style="">Node 12</text>
        </g>
        <!-- node8&#45;&gt;node12 -->
        <g id="edge17" class="edge">
            <title style="">node8-&gt;node12</title>
            <path fill="none" stroke="black" d="M128.28,-93.71C135.94,-95.62 156.96,-100.85 167.47,-103.47" style=""></path>
            <polygon fill="black" stroke="black" points="167.24,-104.13 169.35,-103.94 167.58,-102.78 167.24,-104.13" style=""></polygon>
            <text text-anchor="middle" x="149.51" y="-101.82" font-family="Times,serif" font-size="7.00" style="">46</text>
        </g>
        <!-- node13 -->
        <g id="node13" class="node graph_node">
            <title style="">node13</title>
            <ellipse fill="none" stroke="black" cx="174.61" cy="-77" rx="3.6" ry="3.6" style=""></ellipse>
            <text text-anchor="middle" x="159.06" y="-67.1" font-family="Times,serif" font-size="7.00" style="">Node 13</text>
        </g>
        <!-- node8&#45;&gt;node13 -->
        <g id="edge18" class="edge">
            <title style="">node8-&gt;node13</title>
            <path fill="none" stroke="black" d="M128.33,-91.91C132.31,-90.43 139.67,-87.73 146.01,-85.6 153.42,-83.12 162.03,-80.47 167.63,-78.78" style=""></path>
            <polygon fill="black" stroke="black" points="167.53,-79.54 169.25,-78.3 167.13,-78.2 167.53,-79.54" style=""></polygon>
            <text text-anchor="middle" x="149.51" y="-87.7" font-family="Times,serif" font-size="7.00" style="">54</text>
        </g>
        <!-- node9&#45;&gt;node7 -->
        <g id="edge19" class="edge">
            <title style="">node9-&gt;node7</title>
            <path fill="none" stroke="black" d="M321.66,-78.78C317.87,-81.34 310.47,-86.09 303.61,-89 277.87,-99.93 245.06,-107.17 231.79,-109.85" style=""></path>
            <polygon fill="black" stroke="black" points="231.9,-109.11 230.07,-110.19 232.17,-110.49 231.9,-109.11" style=""></polygon>
            <text text-anchor="middle" x="275.01" y="-102.05" font-family="Times,serif" font-size="7.00" style="">68</text>
        </g>
        <!-- node11 -->
        <g id="node11" class="node graph_node">
            <title style="">node11</title>
            <ellipse fill="none" stroke="black" cx="275.01" cy="-192" rx="3.6" ry="3.6" style=""></ellipse>
            <text text-anchor="middle" x="259.46" y="-182.1" font-family="Times,serif" font-size="7.00" style="">Node 11</text>
        </g>
        <!-- node10&#45;&gt;node11 -->
        <g id="edge20" class="edge">
            <title style="">node10-&gt;node11</title>
            <path fill="none" stroke="black" d="M228.68,-207.99C236.4,-205.26 257.73,-197.74 268.14,-194.07" style=""></path>
            <polygon fill="black" stroke="black" points="268.14,-194.81 269.79,-193.49 267.67,-193.49 268.14,-194.81" style=""></polygon>
            <text text-anchor="middle" x="249.91" y="-203.62" font-family="Times,serif" font-size="7.00" style="">60</text>
        </g>
        <!-- node11&#45;&gt;node3 -->
        <g id="edge21" class="edge">
            <title style="">node11-&gt;node3</title>
            <path fill="none" stroke="black" d="M271.35,-190.78C258.16,-184.75 199.73,-158.03 181.24,-149.57" style=""></path>
            <polygon fill="black" stroke="black" points="181.94,-149.12 179.83,-148.93 181.36,-150.4 181.94,-149.12" style=""></polygon>
            <text text-anchor="middle" x="224.81" y="-173.1" font-family="Times,serif" font-size="7.00" style="">10</text>
        </g>
        <!-- node14 -->
        <g id="node14" class="node graph_node">
            <title style="">node14</title>
            <ellipse fill="none" stroke="black" cx="224.81" cy="-85" rx="3.6" ry="3.6" style=""></ellipse>
            <text text-anchor="middle" x="209.26" y="-75.1" font-family="Times,serif" font-size="7.00" style="">Node 14</text>
        </g>
        <!-- node12&#45;&gt;node14 -->
        <g id="edge22" class="edge">
            <title style="">node12-&gt;node14</title>
            <path fill="none" stroke="black" d="M177.65,-102.26C180.99,-98.01 188.06,-89.98 196.21,-86.6 203.11,-83.74 211.83,-83.76 217.6,-84.22" style=""></path>
            <polygon fill="black" stroke="black" points="217.2,-84.89 219.26,-84.39 217.34,-83.5 217.2,-84.89" style=""></polygon>
            <text text-anchor="middle" x="199.71" y="-88.7" font-family="Times,serif" font-size="7.00" style="">9</text>
        </g>
        <!-- node16&#45;&gt;node17 -->
        <g id="edge23" class="edge">
            <title style="">node16-&gt;node17</title>
            <path fill="none" stroke="black" d="M227.93,-133.91C232.71,-129.15 244.59,-117.07 253.41,-106 259.91,-97.85 266.59,-87.74 270.52,-81.59" style=""></path>
            <polygon fill="black" stroke="black" points="270.92,-82.25 271.4,-80.19 269.74,-81.5 270.92,-82.25" style=""></polygon>
            <text text-anchor="middle" x="249.91" y="-115.81" font-family="Times,serif" font-size="7.00" style="">12</text>
        </g>
        <!-- node17&#45;&gt;node9 -->
        <g id="edge24" class="edge">
            <title style="">node17-&gt;node9</title>
            <path fill="none" stroke="black" d="M278.88,-76.06C286.54,-76.22 307.56,-76.65 318.07,-76.87" style=""></path>
            <polygon fill="black" stroke="black" points="317.89,-77.57 319.9,-76.91 317.92,-76.17 317.89,-77.57" style=""></polygon>
            <text text-anchor="middle" x="300.11" y="-78.66" font-family="Times,serif" font-size="7.00" style="">23</text>
        </g>
    </g>
</svg>